<svg width="500" height="500" viewBox="0 0 500 500" fill="none" xmlns="http://www.w3.org/2000/svg">
<g clip-path="url(#clip0_1_18997)">
<path fill-rule="evenodd" clip-rule="evenodd" d="M468.607 329.09C472.864 326.748 477.021 324.204 481.112 321.556C483.994 319.74 481.443 315.166 478.488 316.819C476.977 317.664 475.472 318.518 473.961 319.358C475.15 318.279 476.252 317.105 477.24 315.825L477.172 315.753C480.981 312.158 476.088 305.373 471.756 308.327C467.936 311.245 464.081 314.222 459.696 316.143C450.613 320.201 440.595 320.872 430.846 320.989C427.279 320.707 423.871 321.358 420.41 322.084C421.767 316.348 425.163 312.016 426.965 306.461C428.294 300.852 420.609 297.031 417.886 302.422C417.218 303.746 416.58 305.086 415.957 306.432C410.071 312.073 400.242 311.576 394.305 317.633C390.924 320.795 389.268 325.085 388.615 329.392C388.171 332.316 388.861 335.247 387.183 337.837C379.07 349.927 366.251 369.038 359.74 382.343C355.131 350.726 342.823 311.619 330.108 282.708C325.903 273.463 321.093 264.428 314.778 256.591C315.494 253.977 312.968 249.338 311.361 250.766C306.416 244.402 297.675 242.754 290.647 239.59C281.159 235.315 273.287 226.43 269.417 216.332C264.445 197.102 252.205 194.659 235.231 195.509C218.986 195.487 206.966 202.808 203.422 220.232C196.221 233.456 179.218 231.269 166.986 234.77C158.021 236.927 149.321 240.263 141.053 244.498C131.855 235.306 98.9132 273.885 95.9188 283.814C97.6816 284.174 99.4336 284.607 101.17 285.135C102.716 285.606 102.067 288.067 100.507 287.673C98.5665 287.182 96.6134 286.844 94.6511 286.609C94.5913 286.807 94.5389 287.003 94.4998 287.197C94.2795 287.182 94.0597 287.162 93.8394 287.146C94.3277 287.414 94.7978 287.725 95.2559 288.126C96.3632 289.095 94.9217 290.964 93.745 290.192C92.6365 289.318 91.1846 289.456 89.855 289.163C89.776 292.044 80.0195 288.821 78.504 287.866C71.7685 286.979 64.8392 287.931 58.5513 284.509C50.1847 282.652 41.7553 280.6 33.4827 278.235C31.2927 279.135 29.2344 282.354 30.9739 284.716C31.9523 285.791 30.6945 287.546 29.4626 286.782C25.3306 284.219 22.1351 280.219 19.4259 275.91C18.1507 274.555 15.8871 274.846 14.1738 274.284C13.9448 274.717 13.8097 275.201 13.8118 275.696C6.54415 276.957 11.7285 285.32 15.3821 287.925C13.4439 289.255 13.3703 291.859 13.5399 294.033C13.1293 294.808 12.9921 295.768 13.3496 296.635C14.7162 299.953 17.6719 302.748 19.9193 305.436C22.4007 308.405 24.6132 311.39 27.6325 313.797C39.1409 323.04 53.029 328.207 67.2765 330.228C72.3354 331.047 79.6121 332.3 82.7445 336.807C81.9759 342.156 80.5648 347.285 79.2846 352.501C77.4944 359.425 77.6162 366.673 77.5925 373.731C77.3423 373.519 76.8618 373.563 76.7903 373.967C76.3738 376.893 76.0642 379.885 74.3762 382.343C72.8965 386.915 71.9119 391.791 71.3586 396.594C69.1424 419.364 68.6133 442.806 73.6102 465.221C75.5384 473.537 78.6744 481.44 82.9473 488.717C84.2213 490.887 86.2696 491.523 88.1088 491.097C94.2646 494.466 102.019 495.547 108.654 494.691C131.274 487.944 123.393 504.19 155.108 499.215C209.852 491.868 265.176 506.306 319.803 497.829C321.149 508.778 338.762 505.638 344.879 501.009C363.224 486.641 372.332 441.151 381.538 418.074C387.867 399.885 398.463 367.67 412.34 355.465C416.501 352.036 421.531 350.23 426.564 348.773C445.346 343.674 464.201 338.852 483.019 333.894C486.21 333.066 485.637 327.331 482.224 327.699C477.695 328.187 473.151 328.629 468.607 329.09Z" fill="#EADEB2"/>
<path fill-rule="evenodd" clip-rule="evenodd" d="M50.4868 325.679C49.215 325.512 47.968 325.035 46.7294 324.658C44.8382 324.076 42.9844 323.397 41.1597 322.622C37.3939 321.033 33.7404 319.154 30.3155 316.855C24.7832 313.137 19.8952 308.372 16.2084 302.635L15.9552 302.235C13.8505 298.857 9.96799 291.357 14.3213 288.792C11.5156 286.322 8.86374 281.886 9.01337 278.461C9.22535 273.618 14.8615 273.684 17.7752 275.738C19.6831 277.082 21.1129 278.965 22.5469 280.818C24.1346 282.876 25.8305 284.838 27.5928 286.725C28.0604 287.224 28.5327 287.714 29.0132 288.195L29.4965 288.674C29.4217 288.486 29.3552 288.293 29.297 288.096C28.3244 284.904 29.484 280.748 32.5141 279.285C34.3684 278.389 36.2942 278.936 38.091 279.696L38.3664 279.815C40.7855 280.87 43.2337 281.803 45.7525 282.552C56.019 285.604 66.7344 286.112 77.2544 287.636C81.307 288.227 85.4344 288.971 89.4662 290.066C91.004 283.187 94.7739 276.592 98.8639 271.166C118.449 245.21 150.749 236.631 180.298 231.078C182.991 230.575 185.223 234.332 186.79 233.443C189.762 231.761 192.377 229.379 194.671 226.791C199.563 221.268 203.034 214.774 207.111 208.621C209.127 205.582 213.766 208.301 211.895 211.564L210.979 213.158C207.206 219.69 203.028 226.42 197.618 231.485C194.742 234.174 191.549 236.298 187.9 237.625C185.136 238.628 181.258 239.473 178.232 238.5L177.869 237.943C177.989 238.129 178.11 238.315 178.232 238.501C186.129 250.557 196.038 260.76 206.479 270.39C217.018 280.105 228.388 288.805 239.825 297.311L240.779 298.019C259.412 283.7 275.152 265.022 286.196 243.682C283.881 243.388 281.591 241.825 279.613 240.66C277.231 239.25 274.991 237.568 273.245 235.326C269.442 230.443 269.936 224.15 269.251 218.225C269.209 217.857 269.67 217.765 269.882 217.949C271.944 219.753 272.667 222.709 273.528 225.262C274.475 228.069 275.548 230.382 277.722 232.357C279.746 234.196 282.215 235.549 284.613 236.753C285.85 237.371 291.99 238.959 292.689 240.275C303.296 237.651 313.629 242.184 321.489 249.83C329.083 257.218 334.657 266.822 339.578 276.303C344.828 286.419 349.13 296.964 352.837 307.802C356.595 318.803 359.475 330.045 361.059 341.624C362.396 351.386 363.215 361.301 363.746 371.172L363.811 372.406C371.658 359.43 379.701 346.59 387.91 333.864C386.043 328.613 388.109 323.253 391.605 319.197C395.479 314.709 400.836 312.624 405.961 310.198L406.635 309.877C409.105 308.69 411.567 307.383 413.701 305.604C415.754 303.888 417.263 301.523 419.424 299.942C422.566 297.638 428.269 298.129 428.415 303.161C428.489 305.924 427.363 308.954 426.332 311.437C425.164 314.245 423.589 316.789 421.718 319.127C421.632 319.236 421.538 319.322 421.442 319.39L421.369 319.438C423.955 319.889 426.561 320.253 429.217 320.38C434.574 320.638 439.99 320.222 445.236 319.031C450.606 317.814 455.81 315.835 460.64 313.075C464.767 310.719 468.591 307.671 473.28 306.953C473.712 306.883 474.148 306.839 474.597 306.813C475.345 306.769 476.094 307.698 475.798 308.477C475.636 308.906 475.466 309.331 475.279 309.76C473.658 313.522 471.172 317.171 468.07 319.941L467.83 320.152C468.924 319.754 470 319.307 471.06 318.803C477.291 315.847 482.944 311.38 489.623 309.585C489.939 309.497 490.259 309.419 490.579 309.344C492.645 308.876 493.734 311.24 492.52 312.861C492.325 313.123 492.129 313.382 491.926 313.64C488.945 317.538 485.658 321.155 482.033 324.404C480.79 325.517 479.51 326.594 478.205 327.623C477.655 328.06 477.102 328.486 476.543 328.906L476.268 329.112C476.921 328.626 477.565 328.131 478.205 327.623C482.295 326.318 486.327 324.772 490.271 323.06C491.838 322.381 493.056 324.054 493.222 325.429C493.779 330.036 488.925 333.369 485.766 335.585C482.598 337.81 479.111 339.5 475.541 340.857C468.676 343.471 461.466 344.658 454.267 345.722L450.77 346.235C436.931 348.274 422.475 350.711 412.545 362.058C406.98 368.416 403.214 376.316 399.768 384.089C396.327 391.854 393.305 399.824 390.437 407.838C387.465 416.132 384.875 424.58 382.124 432.957C379.597 440.65 376.578 448.244 373.588 455.761L373.117 456.947C366.77 472.923 359.188 487.97 348.623 501.309C346.881 503.512 344.067 500.385 345.676 498.204C356.728 483.192 364.417 465.478 370.764 447.807C373.653 439.768 376.072 431.534 378.849 423.45L380.501 418.648C382.707 412.246 384.932 405.852 387.253 399.5C390.192 391.464 393.421 383.524 397.116 375.843L397.508 375.034C401.126 367.624 405.424 360.321 411.34 354.713C421.987 344.615 436.156 342.193 449.855 340.274L454.165 339.675C459.957 338.865 465.765 337.969 471.397 336.338C474.647 335.401 477.823 334.201 480.807 332.545C481.996 331.888 483.155 331.166 484.278 330.378C481.077 331.368 477.831 332.177 474.527 332.812C472.91 333.123 471.309 333.356 469.713 333.518C465.603 333.947 461.525 333.929 457.315 333.697C456.957 333.675 456.841 333.084 457.223 333.01C460.155 332.46 463.091 331.773 466.015 331.028L466.891 330.802C466.908 330.29 467.099 329.747 467.498 329.231C468.953 327.365 471.717 326.41 473.633 325.092C475.641 323.712 477.586 322.224 479.44 320.629C481.135 319.171 482.765 317.63 484.332 316.018L484.802 315.532C484.646 315.695 484.489 315.857 484.332 316.018C480.1 318.077 476.089 320.717 471.671 322.347C468.159 323.647 464.476 324.523 460.76 324.834L460.53 324.853L460.299 324.869C456.421 325.162 452.518 325.044 448.698 325.928C448.27 326.029 448.137 325.425 448.52 325.254C451.857 323.791 455.328 323.226 458.836 322.543C458.911 322.254 459.102 321.996 459.434 321.829L460.332 321.378C463.005 320.025 465.496 318.66 467.718 316.465C469.68 314.525 471.314 312.257 472.54 309.743C467.631 310.877 463.321 314.796 458.857 316.999C453.994 319.403 448.848 321.129 443.561 322.11L442.958 322.219C433.078 323.955 421.197 323.734 412.346 318.322C412.063 318.146 412.267 317.748 412.558 317.796C415.068 318.23 417.554 318.742 420.039 319.197C419.553 318.729 419.337 317.888 419.898 317.214C422.13 314.518 423.896 311.437 425.024 308.066L425.24 307.407C425.76 305.843 426.638 303.415 425.742 302.004C424.886 300.66 422.87 300.844 421.664 301.413C419.158 302.604 417.491 305.578 415.38 307.373C413.077 309.335 410.459 310.789 407.778 312.09L407.212 312.361C402.574 314.559 397.62 316.409 393.974 320.288C392.012 322.372 390.325 324.978 389.759 327.899C389.502 329.239 389.502 330.619 389.842 331.945C390.113 332.983 390.678 333.623 390.354 334.678C389.93 336.04 388.429 337.669 387.656 338.882C386.758 340.284 385.865 341.689 384.971 343.095C383.188 345.907 381.413 348.727 379.638 351.543C376.089 357.183 372.576 362.85 369.093 368.534C367.96 370.385 366.83 372.238 365.704 374.093L364.018 376.877L363.127 378.344L361.608 380.862C361.662 381.094 361.657 381.339 361.587 381.553C361.328 382.331 360.842 382.862 360.24 383.248L360.132 383.314C351.262 398.085 342.533 412.953 333.717 427.76C333.248 432.279 332.807 436.802 332.425 441.326C331.556 451.565 330.962 461.83 330.771 472.108C330.679 477.083 331.057 482.088 331.261 487.059C331.361 489.431 331.497 491.801 331.675 494.169L331.807 495.848C331.982 498.156 332.082 500.446 331.294 502.645C330.596 504.576 328.468 505.009 327.208 503.538C310.778 502.842 294.335 502.312 277.892 501.984C248.46 501.388 219.015 501.48 189.579 502.08C174.795 502.382 160.006 502.807 145.225 503.332C137.943 503.586 130.657 503.945 123.371 504.051C119.445 504.107 113.267 502.601 112.95 497.948L112.942 497.806C112.452 497.946 111.944 498.06 111.425 498.143C111.194 498.18 110.971 498.17 110.766 498.119L110.664 498.091C104.812 499.97 97.4102 497.288 91.8498 495.726L91.3907 495.598C86.0829 494.14 81.8183 492.056 78.3394 487.422C72.2501 479.308 70.1719 468.412 69.0912 458.37C68.077 448.92 68.0188 439.295 69.2533 429.862C68.5259 422.176 69.2366 414.245 70.0638 406.603C70.4711 402.824 70.9491 399.049 71.5227 395.291C71.8428 393.194 72.2626 391.118 72.6907 389.047C72.8616 388.219 73.0039 387.328 73.2206 386.466L73.3183 386.099C72.6532 386.191 71.9258 386.038 71.2234 385.631C69.5525 384.663 69.0662 382.705 69.0371 380.831C68.9456 375.182 69.5857 369.371 70.151 363.757C70.7205 358.151 71.5019 352.523 72.5244 346.988L72.789 345.561C73.5637 341.42 74.4503 337.146 76.0117 333.255C70.147 332.204 64.2988 331.087 58.6086 329.186C55.8321 328.254 53.0971 327.094 50.4868 325.679ZM356.595 384.47C356.503 384.492 356.416 384.519 356.329 384.545C353.985 385.237 351.615 385.824 349.254 386.454C345.173 387.536 341.183 388.745 337.388 390.623C336.593 401.195 335.414 411.732 334.294 422.275L334.071 424.383C335.792 421.02 337.554 417.683 339.395 414.386C345.002 404.335 350.738 394.363 356.595 384.47ZM74.7481 385.517C74.7606 386.774 74.5112 388.079 74.3782 389.287C74.1621 391.25 73.9875 393.22 73.7672 395.182C73.3183 399.123 72.9359 403.069 72.6574 407.028C72.4787 409.555 72.3623 412.091 72.2584 414.626C74.6152 405.346 77.7367 396.268 80.7044 387.177C80.2083 387.121 79.7012 386.994 79.1781 386.847L78.2975 386.598C77.7783 386.457 76.0938 386.02 74.7481 385.517ZM364.018 376.877L364.035 377.293C364.097 378.769 363.258 379.601 362.239 379.815C362.83 378.834 363.424 377.853 364.018 376.877ZM94.3459 306.931C96.8273 307.163 99.2588 307.72 101.578 308.683L101.802 308.775C103.517 309.473 106.026 310.349 106.587 312.279C106.745 312.826 106.321 313.277 105.834 313.321C103.972 313.478 101.778 311.376 100.053 310.666C98.1324 309.878 96.1207 309.291 94.084 308.98C89.5077 308.275 84.7361 308.81 80.43 310.566C80.1764 310.671 80.0185 310.246 80.2471 310.119C84.5865 307.632 89.4121 306.472 94.3459 306.931ZM41.7624 319.456C41.4754 319.189 41.1886 318.908 40.906 318.628C38.6775 316.407 36.7041 313.815 35.243 310.967L34.8584 310.196C33.6684 307.768 32.207 304.31 35.0038 302.561C36.6747 301.514 38.6864 301.777 40.5485 302.412C40.6691 302.451 40.7896 302.495 40.9101 302.539C41.7414 302.846 42.5436 303.213 43.2586 303.563C46.3634 305.065 49.1026 307.251 51.9705 309.178C55.0781 311.267 58.1465 312.603 61.733 313.384L62.0708 313.456C65.4375 314.157 69.0869 314.608 71.4353 317.524C72.0256 318.261 71.4852 319.64 70.4669 319.276C63.9745 316.969 57.1038 316.46 51.1434 312.672C48.6745 311.104 46.3385 309.305 43.8155 307.82C42.4771 307.031 41.0953 306.341 39.6227 305.869L38.8182 305.619C38.347 305.474 37.7845 305.331 37.4062 305.473C36.6862 305.736 36.916 306.142 37.1388 306.85L37.161 306.922C38.9109 312.625 43.8987 317.397 48.5207 320.555C49.5806 321.282 50.6654 321.948 51.771 322.565C59.255 326.768 67.6289 328.724 75.8534 331.046C75.8534 331.046 80.6088 332.445 82.1841 332.97C83.9381 332.817 85.9374 333.47 87.2592 334.249C88.5435 335.006 89.5785 336.023 90.3599 337.218C90.3599 337.218 91.1122 337.88 91.2494 338.904C91.6443 339.855 91.9103 340.879 92.0433 341.948C92.1181 342.574 91.9685 343.055 91.6858 343.397C92.536 357.145 89.0115 370.815 85.0379 383.88L84.6442 385.169L84.3912 385.985C80.1059 399.837 75.1888 413.588 72.9941 428.031C71.5269 437.678 71.5726 447.663 72.6491 457.354L72.725 458.023C73.7857 467.186 75.8266 477.465 81.357 484.839C84.1778 488.602 87.5199 490.275 91.7927 491.487L92.0267 491.552C95.8922 492.625 99.8824 494.145 103.868 494.605C107.568 495.029 110.668 493.58 113.998 492.222L114.002 492.218C121.014 485.68 124.198 476.159 126.55 466.551C132.648 441.686 131.891 415.874 128.433 390.645C126.629 377.464 124.177 364.396 121.733 351.333C120.511 344.803 119.193 338.287 118.1 331.735L117.451 327.88C117.093 325.738 116.746 323.594 116.45 321.44C116.051 318.545 115.931 315.699 115.793 312.786C112.435 306.922 107.559 302.092 101.911 298.628C97.8665 296.145 93.5853 294.424 89.167 293.176C76.5354 289.589 62.765 289.843 50.0544 287.084C45.7845 286.159 41.7313 284.784 37.6802 283.137L37.1278 282.911C35.2698 282.149 33.3745 281.724 32.4518 284.032C31.795 285.674 32.1857 287.382 33.1708 288.762C35.5857 292.142 40.4405 293.71 44.0941 294.928C46.2928 295.663 48.5373 296.246 50.8068 296.679C53.0762 297.113 55.354 297.222 57.5319 298.068C58.3716 298.392 58.5378 299.797 57.5319 300.047C54.772 300.726 51.9955 300.143 49.2522 299.578C46.2388 298.952 43.2711 298.063 40.3865 296.938C39.8544 296.731 39.3038 296.513 38.743 296.282L38.3207 296.105C38.7571 296.439 39.1936 296.767 39.6342 297.096C39.7505 297.183 39.6799 297.415 39.5261 297.358C32.7435 294.692 26.5722 289.882 21.7913 284.191L21.5535 283.905C19.8701 281.873 16.0337 275.724 12.7999 277.437C9.76337 279.043 14.9396 285.233 16.9068 287.764L17.1352 288.061C19.3714 288.122 21.5369 289.589 23.3491 290.771C26.4956 292.826 29.7834 294.595 33.1335 296.25C39.7922 299.548 46.8624 301.873 53.4504 305.337C53.5377 305.385 53.4712 305.503 53.388 305.491C49.1941 304.785 45.046 303.66 40.9934 302.263L40.8126 302.203L40.6318 302.14C38.1005 301.264 35.6025 300.275 33.146 299.219C30.4152 298.046 27.7467 296.728 25.1572 295.234C22.813 293.886 20.211 291.455 17.4927 291.096C17.2017 291.057 16.944 291.052 16.7196 291.074C13.5981 291.35 16.1793 296.798 17.0521 298.427C18.4778 301.102 20.1986 303.572 22.1729 305.828C26.1756 310.408 31.0262 314.039 36.2758 316.863C38.0673 317.827 39.9003 318.676 41.7624 319.456Z" fill="black"/>
<path fill-rule="evenodd" clip-rule="evenodd" d="M299.531 105.471C295.422 90.5773 279.72 84.0784 265.577 83.0471C227.286 79.0495 188.311 100.487 171.336 135.249C157.747 161.644 157.322 189.372 186.531 204.444C188.126 205.327 189.792 206.271 191.493 207.128C192.971 208.508 194.493 209.834 196.155 210.948C212.06 221.452 231.582 225.995 250.501 225.01C278.433 224.444 288.405 205.409 294.507 180.997C300.943 156.694 304.542 130.323 299.531 105.471V105.471Z" fill="#EADEB2"/>
<path fill-rule="evenodd" clip-rule="evenodd" d="M317.866 245.857C316.562 241.895 314.927 238.054 313.4 234.173C313.077 232.239 312.861 230.288 312.806 228.322C312.594 221.297 313.903 214.211 315.37 207.37C318.353 193.468 321.515 179.71 323.103 165.552C325.938 140.227 324.251 113.893 312.781 90.7745C302.843 70.7484 286.002 54.371 264.247 48.235C257.816 46.4203 251.197 45.4194 244.532 45.0196C243.707 44.8879 242.883 44.7589 242.063 44.6347C232.794 43.2313 223.41 42.532 214.04 43.1372C198.503 44.1413 183.111 48.6255 170.17 57.4947C157.142 66.4251 147.885 78.9471 143.577 94.2202C139.096 110.109 139.476 127.316 131.738 142.213C129.452 146.614 126.784 150.797 124.239 155.051C117.487 162.617 110.156 171.029 108.55 181.432C106.568 194.289 113.933 205.156 120.905 215.189C127.206 224.248 135.756 236.761 129.272 247.915C126.213 253.178 121.311 257.115 117.63 261.913C113.814 266.896 110.835 272.615 109.295 278.727C106.404 290.206 109.064 302.17 116.797 311.142C120.825 315.812 125.997 318.9 131.597 321.307C137.327 323.766 142.927 326.101 147.664 330.287C149.83 332.197 151.812 334.292 153.686 336.487C155.433 339.23 157.467 341.794 159.76 344.141C162.285 346.724 167.23 343.187 164.913 340.147C164.741 339.923 164.574 339.703 164.402 339.479C162.707 337.26 161.004 335.041 159.222 332.894C153.906 324.435 151.86 314.077 154.504 304.197C155.19 301.629 156.155 299.194 157.356 296.895C157.611 297.564 157.89 298.225 158.185 298.878C159.333 301.409 160.945 304.408 162.994 306.972C163.074 308.73 163.338 310.473 163.848 312.179C167.006 322.757 177.567 327.976 187.09 332.037C188.023 332.437 188.945 332.822 189.85 333.202C192.338 334.247 194.971 330.687 193.419 328.54C193.012 327.976 192.618 327.399 192.243 326.814C187.776 319.869 185.651 311.562 186.855 303.287C188.123 294.536 193.26 287.295 198.36 280.345C203.369 273.513 208.749 266.539 210.991 258.205C213.471 248.997 211.214 239.817 207.385 231.342C203.88 223.586 199.21 216.438 195.294 208.896C196.635 210.239 198.019 211.538 199.444 212.791C201.047 214.2 202.693 215.813 204.593 216.806C205.998 217.54 207.405 215.783 206.292 214.594C204.83 213.033 202.959 211.827 201.336 210.433C199.777 209.096 198.264 207.705 196.788 206.276C194.971 204.517 193.242 202.676 191.575 200.779C190.241 197.366 189.142 193.861 188.247 190.304C187.03 185.49 185.906 180.367 185.993 175.377C186.081 170.258 188.729 166.673 192.255 163.237C193.748 161.782 195.255 160.344 196.76 158.903C199.965 156.541 202.988 153.901 205.924 151.269C211.156 146.578 216.217 141.62 221.05 136.517C222.347 135.148 223.633 133.764 224.902 132.364C229.339 127.791 233.57 123.017 237.559 118.078C241.523 116.628 245.332 114.71 248.905 112.451C247.35 114.033 245.778 115.595 244.215 117.169C240.733 120.677 237.117 124.202 233.08 127.061C232.666 127.358 232.917 127.987 233.428 127.887C238.56 126.857 243.362 125.143 247.844 122.412C252.402 119.632 256.418 115.855 260.167 112.066C262.289 111.105 264.335 109.867 266.205 108.65C266.305 108.586 266.404 108.518 266.504 108.453C264.662 114.317 261.958 120.958 256.195 123.049C256.008 123.117 256.02 123.429 256.243 123.417C261.098 123.131 265 120.937 268.08 117.74C270.558 115.95 272.922 114.052 275.178 111.987C277.363 109.986 279.433 107.84 281.4 105.618C278.652 111.085 275.574 116.43 272.538 121.715C272.379 121.995 272.714 122.376 273.001 122.179C279.41 117.822 284.271 112.198 288.247 105.549C288.834 104.57 289.394 103.576 289.941 102.573C289.528 104.142 289.078 105.701 288.596 107.252C287.723 110.059 286.864 112.872 285.989 115.678C285.518 117.191 284.943 118.669 284.312 120.122C283.861 121.162 283.27 122.2 283.178 123.34C283.172 123.416 283.254 123.465 283.32 123.449C285.876 122.807 288.255 119.88 290.076 118.067C291.09 117.058 292.04 115.949 292.914 114.781C293.077 121.512 293.188 128.244 293.041 134.996C292.766 147.396 291.968 159.792 290.947 172.152C290.046 183.079 289.38 194.546 283.31 204.042C278.612 211.392 270.995 216.478 262.72 218.941C261.99 219.162 261.256 219.358 260.518 219.534C248.538 222.39 236.606 219.154 226.014 213.434C222.831 211.716 220.111 216.378 223.182 218.296C234.676 225.482 249.244 227.929 262.253 224.709C261.843 240.141 269.415 254.78 276.949 267.869C281.164 275.195 285.384 282.472 288.363 290.415C290.891 297.159 292.61 304.156 293.188 311.354C293.874 319.837 293.2 328.368 292.02 336.779C291.956 337.235 291.892 337.696 291.824 338.152C291.561 339.959 293.176 341.473 294.927 340.548C302.668 336.463 306.006 327.755 308.036 319.705C309.934 312.163 311.222 304.473 311.94 296.731C312.993 299.651 313.846 302.643 314.508 305.694C314.6 306.131 314.688 306.568 314.775 307.004C315.278 309.556 319.122 309.375 319.737 307.004C319.848 306.576 319.956 306.147 320.056 305.715C323.226 292.838 324.08 279.408 322.405 266.243C321.523 259.318 320.052 252.485 317.866 245.857" fill="black"/>
<path fill-rule="evenodd" clip-rule="evenodd" d="M236.938 195.246C238.837 189.375 259.437 180.734 262.91 183.247C266.384 185.759 261.904 203.708 261.904 203.708C261.904 203.708 242.692 205.706 241.318 204.707C239.943 203.708 235.039 201.117 236.938 195.246Z" fill="white"/>
<path fill-rule="evenodd" clip-rule="evenodd" d="M272.026 183.699C272.15 183.835 271.876 184.018 271.74 183.919C270.158 182.77 267.667 183.422 266.14 183.943C266.14 183.943 265.582 201.978 266.2 202.405C266.817 202.833 275.519 202.579 275.519 203.649C275.519 207.147 270.286 208.46 267.445 208.252C262.973 207.925 258.363 207.286 253.897 207.804C249.431 208.322 239.943 211.18 235.087 207.23C229.294 202.519 230.077 194.777 234.897 189.722C237.935 186.537 242.406 184.625 246.814 183.209C253.264 181.136 268.466 179.799 272.026 183.699ZM260.129 196.94C257.79 197.853 246.162 201.704 243.399 202.405C246.628 202.173 257.654 201.916 260.129 200.715C260.406 199.591 260.584 196.762 260.129 196.94ZM261.904 184.438C255.575 185.468 241.907 190.117 239.943 192.591C242.927 192.121 259.574 190.117 261.452 190.117C261.725 188.66 261.544 186.107 261.904 184.438ZM263.926 156.197C267.062 158.108 271.839 162.565 268.466 167.303C264.496 171.481 258.779 166.691 255.962 164.524C253.35 162.845 250.415 167.163 252.839 169.124C273.195 184.237 281.456 156.697 265.512 153.95C263.757 153.647 263.105 155.606 263.926 156.197ZM270.878 128.309C272.719 128.294 273.794 129.492 275.174 130.559C276.595 131.657 278.309 132.534 279.97 133.205C281.703 133.904 283.555 134.459 285.378 134.855C287.269 135.265 289.008 135.073 290.885 135.42C295.86 136.34 294.683 144.658 289.694 144.247C285.203 143.877 280.383 141.111 276.978 138.242C275.351 136.872 273.977 135.301 272.64 133.659L272.39 133.351C271.203 131.883 270.095 130.38 270.691 128.452C270.716 128.369 270.79 128.31 270.878 128.309ZM229.38 152.588C229.386 149.932 230.928 143.87 234.74 143.87C237.121 143.87 238.567 147.996 238.818 152.249L238.826 152.423C238.937 155.067 238.213 160.847 234.74 160.847C231.23 160.847 229.417 155.372 229.381 152.681L229.38 152.588ZM285.501 152.588C285.495 149.932 283.953 143.87 280.142 143.87C277.82 143.87 276.387 147.792 276.085 151.93L276.064 152.249C275.914 154.804 276.591 160.847 280.142 160.847C283.651 160.847 285.465 155.372 285.501 152.681L285.501 152.588ZM241.855 128.705C244.232 127.676 246.956 127.969 248.387 130.423C249.742 132.745 248.82 135.545 246.674 136.974C244.567 138.377 241.738 139.141 239.315 139.944L239.047 140.033C236.699 140.825 234.349 141.473 231.923 141.979C229.656 142.453 227.372 142.803 225.075 143.082L224.386 143.164C222.594 143.371 220.095 144.07 218.482 143.047C218.339 142.957 218.283 142.77 218.37 142.62C219.309 140.99 221.801 140.34 223.4 139.515C225.453 138.454 227.477 137.324 229.483 136.175C231.51 135.013 233.532 133.833 235.538 132.633C237.622 131.388 239.639 129.664 241.855 128.705Z" fill="black"/>
<path fill-rule="evenodd" clip-rule="evenodd" d="M303.946 146.387C300.492 170.22 276.383 172.855 272.1 149.195C272.787 148.888 273.282 148.283 273.179 147.11C273.154 141.953 274.723 136.504 279.282 133.636C283.994 130.678 289.508 130.384 294.96 130.459C305.364 130.206 305.145 139.078 303.946 146.387M268.326 136.022C265.06 135.881 260.929 135.999 258.004 138.028C257.2 135.819 255.111 133.46 252.999 132.199C260.846 132.433 268.924 131.645 276.829 131.034C274.937 132.35 273.176 134.327 272.032 136.612C270.97 136.035 269.45 136.089 268.326 136.022M253.933 148.913C244.879 180.709 222.278 166.851 219.814 162.776C215.369 156.033 214.533 139.641 218.405 135.258C223.946 131.295 231.791 132.315 238.338 132.218C250.365 132.384 258.907 136.054 253.933 148.913M314.637 134.289C312.177 133.961 309.548 133.895 307.261 135C306.557 131.946 304.346 129.393 301.85 128.27C301.548 127.883 301.593 127.676 300.561 127.734C294.223 125.791 287.132 126.819 281.042 128.811C271.423 129.638 261.332 130.289 251.633 131.428C242.547 127.265 215.128 126.655 213.424 136.915C211.28 136.588 207.63 134.867 205.829 137.202C192.618 134.917 178.966 138.092 165.698 139.507C162.358 140.134 160.637 146.896 164.429 146.804C166.56 146.214 164.363 142.593 167.233 142.321C180.035 140.894 192.557 138.871 205.491 138.634C205.041 140.912 214.045 141.06 214.178 139.73C214.197 139.74 214.217 139.746 214.237 139.755C212.012 148.215 214.02 160.389 218.041 165.634C223.675 172.503 237.818 174.474 244.09 170.054C252.18 165.976 260.596 145.501 258.232 138.699C262.522 137.311 266.764 137.728 271.217 138.434C270.197 141.372 268.438 148.604 270.969 149.231C270.505 163.589 283.312 172.547 295.119 166.657C305.339 161.763 308.913 146.272 307.662 136.869C308.934 139.377 319.616 136.646 314.637 134.289" fill="black"/>
</g>
<defs>
<clipPath id="clip0_1_18997">
<rect width="500" height="500" fill="white"/>
</clipPath>
</defs>
</svg>
