<svg width="500" height="500" viewBox="0 0 500 500" fill="none" xmlns="http://www.w3.org/2000/svg">
<g clip-path="url(#clip0_1_18997)">
<path fill-rule="evenodd" clip-rule="evenodd" d="M403.158 354.218C403.158 350.365 398.407 343.527 398.399 340.037C402.393 339.236 405.732 333.162 404.848 329.358C403.289 328.021 399.202 325.388 397.512 324.158C387.216 324.509 391.129 308.431 389.964 300.258C388.79 292.262 387.919 283.901 386.202 275.86C383.152 269.426 381.72 262.212 378.805 255.81C377.503 253.689 375.399 251.744 374.769 249.279C368.392 241.461 359.612 236.775 352.387 230.153C355.191 229.146 355.004 224.901 354.823 222.175C355.476 218.619 354.779 214.159 351.889 212.155C350.912 208.584 346.644 207.338 344.148 209.613C342.509 201.365 336.094 196.361 329.375 193.3C329.381 193.276 329.386 193.252 329.393 193.228C322.616 190.209 314.493 188.704 307.732 190.401C311.301 145.765 280.842 144.127 265.383 147.878C257.476 149.796 245.613 155.77 242.917 164.074C241.396 168.762 237.029 183.882 236.408 188.704C224.603 181.144 210.919 171.175 200.68 186.396C198.63 189.048 196.361 191.018 193.293 191.93C183.715 194.719 171.001 194.812 165.557 205.772C162.303 212.562 165.23 217.035 164.355 223.827C121.238 257.812 85.2055 383.011 93.2959 441.257C95.2422 462.101 104.744 498.996 128.198 494.396C140.161 509.082 340.947 509.082 361.652 494.396C378.694 499.399 396.011 491.654 403.158 473.334C412.234 448.213 402.616 421.083 400.911 395.312C399.876 388.806 398.336 383.641 397.512 376.981C397.169 374.205 398.353 369.587 397.512 367.029C397.909 365.364 403.158 358.071 403.158 354.218Z" fill="#FBE48A"/>
<path fill-rule="evenodd" clip-rule="evenodd" d="M233.52 185.633L234.228 185.973L236.659 187.156L236.15 188.468C234.715 192.16 233.103 195.713 231.335 199.058L231.002 199.682L230.491 200.631L230.517 200.663C230.737 200.937 230.962 201.221 231.192 201.516L257.95 233.786C269.238 247.387 275.197 254.543 275.828 255.254C278.459 258.221 281.046 258.591 283.413 256.089L283.68 255.805L284.118 255.331L284.418 255.002C285.963 253.288 287.499 251.394 289.707 248.536L314.423 209.185L312.862 205.271C309.996 198.041 308.432 193.814 308.168 192.59L308.049 191.99L307.802 190.698L308.93 190.321C312.999 188.96 317.504 189.317 322.614 191.013L322.909 191.113L323.76 191.408C327.222 192.616 329.183 193.428 331.19 194.631C333.922 196.269 335.939 198.302 337.198 200.953C338.646 204.003 339.754 205.536 341.62 206.775L341.766 206.871L341.948 206.985L342.138 207.101C342.304 207.199 342.487 207.303 342.707 207.425L343.491 207.849C345.964 209.18 347.1 210.032 348.073 211.712C349.148 213.566 349.33 215.303 348.998 217.815L348.968 218.032L348.916 218.387L348.714 219.692L348.666 220.023C348.535 220.957 348.513 221.779 348.607 222.47L348.631 222.627L349.173 225.859L348.098 225.093L351.071 227.813C355.232 231.636 357.712 234.008 360.305 236.684L361.022 237.428L361.163 237.575C365.836 242.467 369.631 247.184 372.808 252.218C376.253 257.677 379.172 263.648 381.53 270.006L381.797 270.735L381.818 270.83C385.349 286.362 388.186 302.096 390.32 317.981L390.525 319.519L391.561 327.403L388.15 320.414C387.619 319.326 386.149 318.248 384.315 317.445L384.142 317.37L384.017 317.318L383.754 317.213C381.742 316.427 379.714 316.353 377.813 317.014L377.617 317.085L377.04 317.302L376.527 316.935C375.582 316.257 374.523 315.684 373.359 315.212L373.066 315.096L371.838 314.624L372.283 313.255C372.62 312.221 372.003 310.191 371.114 309.32C369.728 307.971 367.737 307.593 364.645 307.848L364.226 307.886L363.894 307.92L363.396 307.975L361.827 308.164L361.827 308.172C361.807 308.476 361.795 308.756 361.79 309.02L361.787 309.215L361.787 309.405C361.794 310.061 361.844 310.667 361.942 311.232L361.986 311.471L362.34 313.244L360.722 313.212L360.016 313.2C357.653 313.168 355.172 313.21 352.25 313.318L349.367 313.438L342.011 313.788L335.558 314.042L333.635 314.114L333.544 312.748C333.422 310.946 332.05 309.749 329.618 309.218L329.462 309.185L326.921 308.669L329.008 306.544L329.177 306.366L329.351 306.175C331.029 304.3 331.593 302.582 330.902 300.923C330.094 298.978 327.601 298.408 325.311 299.465L325.154 299.54L324.991 299.621C324.561 299.845 324.133 300.126 323.452 300.619L322.581 301.255L322.265 301.482C321.51 302.016 321.011 302.317 320.38 302.61C318.71 303.385 317.151 303.439 314.593 303.081L314.365 303.048L313.822 302.967L312.437 302.751L312.094 302.7L311.746 302.651C309.131 302.302 307.476 302.491 306.079 303.493C305.185 304.134 304.679 304.955 303.897 306.87L303.526 307.794L303.363 308.19C302.423 310.436 301.709 311.514 300.305 312.449C299.409 313.047 298.56 313.405 297.061 313.894L295.993 314.24L295.614 314.369C295.385 314.449 295.195 314.52 294.994 314.601C293.361 315.252 291.884 316.188 290.496 317.443L290.281 317.64L290.047 317.859C288.696 319.139 287.541 320.526 285.569 323.126L284.132 325.029L283.622 325.696L283.2 326.238C283.155 326.295 283.11 326.352 283.065 326.409L282.664 326.91C279.535 330.765 276.406 334.318 273.218 337.612L272.549 338.299L271.86 338.995L271.293 339.559C269.439 341.392 267.437 343.246 264.327 346.049L260.472 349.515L259.259 350.614C255.616 353.925 253.398 356.061 251.137 358.473L250.576 359.076L250.536 359.334C250.515 359.479 250.491 359.645 250.465 359.832C250.465 359.832 248.258 375.115 250.262 387.647C252.265 400.179 252.975 395.084 255.003 398.16L255.473 398.868C256.585 400.529 257.442 401.704 258.372 402.795L259.471 404.068L260.734 405.217L261.532 405.758C262.108 406.149 262.683 406.456 263.259 406.676C264.054 406.983 265.116 406.378 265.638 405.314L265.686 405.209L266.027 404.443L266.788 404.419C266.967 404.413 267.149 404.382 267.327 404.327C269.131 403.769 270.028 401.359 269.146 399.487L269.097 399.387L268.64 398.476L268.406 398.019C268.07 397.372 267.759 396.825 267.444 396.343L267.326 396.165L265.572 393.577L269.987 394.039L270.348 394.079L270.844 394.138L272.434 394.341C274.089 394.549 275.687 394.738 277.245 394.91L278.572 395.052L280.894 395.29L281.37 395.343L282.402 395.465L284.872 395.766L285.752 395.867L286.241 395.92C286.713 395.97 287.136 396.011 287.561 396.046L288.027 396.084C291.585 396.356 294.361 396.176 296.881 395.379C300.981 394.076 305.103 391.388 309.565 387.412C314.127 383.347 317.425 379.52 319.41 375.548C319.447 375.473 319.453 375.414 319.427 375.342L319.408 375.297L318.654 373.744L320.165 373.243C321.373 372.843 322.398 372.334 323.259 371.681C325.91 369.679 326.798 365.672 324.875 363.578L324.79 363.488L324.673 363.369L323.05 360.638L325.398 360.249C326.184 360.113 326.873 359.959 327.518 359.771C331.81 358.519 334.016 354.677 332.115 350.981L332.052 350.861L331.285 349.437L332.655 348.801C332.948 348.665 333.252 348.537 333.588 348.404L333.794 348.324L334 348.246L334.77 347.96C336.398 347.357 337.992 346.899 339.581 346.585C340.838 346.343 342.095 346.187 343.353 346.116L343.825 346.094L344.351 346.073L344.354 346.056L344.662 346.061L345.738 346.019L345.717 346.081C347.314 346.126 348.919 346.3 350.524 346.603L350.903 346.677C351.461 346.786 351.991 346.9 352.557 347.029L355.006 347.612C355.452 347.715 355.841 347.801 356.227 347.878L356.599 347.951L360.545 348.7L356.939 350.647L356.846 350.699L356.753 350.753L356.355 350.999C353.904 352.554 352.454 354.326 352.114 356.513C351.583 359.925 353.312 361.496 357.388 362.027L357.729 362.068L358.088 362.106L358.324 362.127L368.532 362.903L358.867 364.984C356.526 365.488 354.161 366.169 351.773 367.019C351.587 367.085 351.387 367.166 351.17 367.263L351.003 367.339L350.021 367.796L349.078 368.56C347.424 369.938 346.962 371.304 347.788 372.661L347.845 372.751L348.357 373.537L347.892 374.359C346.556 376.72 346.731 379.728 348.327 382.172C349.659 384.212 351.815 385.51 354.755 386.254L354.983 386.31L355.628 386.465L356.57 386.631L357.254 386.736L357.778 386.805L358.132 386.846L358.676 386.903L360.159 387.043C362.267 387.245 363.35 387.408 364.649 387.772C366.393 388.26 367.929 389.055 369.973 390.411L370.211 390.57L370.714 390.911L371.69 391.584L372.635 392.243L372.954 392.463L373.348 392.73C376.256 394.679 378.174 395.411 380.192 395.069C381.474 394.852 382.549 394.326 383.503 393.489L383.653 393.355L385.117 392.003L385.074 391.728L385.392 391.237C386.002 390.296 388.6 384.804 388.602 384.8C390.279 381.496 391.895 379.213 393.938 377.703L394.114 377.576L394.515 377.3L394.973 377.191L395.205 377.232C395.877 377.349 396.076 377.685 396.266 378.252C396.315 378.397 396.353 378.557 396.391 378.75L396.427 378.943L396.463 379.162L396.519 379.542L396.577 379.987L396.644 380.535L396.715 381.168C396.771 381.678 396.833 382.271 396.903 382.969L397.672 390.926L397.884 393.039L398.079 394.924C398.095 395.077 398.111 395.229 398.128 395.38L398.294 396.906L398.475 398.503C398.942 402.526 399.404 405.761 399.883 408.216L399.971 408.657L400.03 408.944L400.184 409.677C402.929 422.873 404.321 433.769 404.39 444.685C404.453 456.419 402.172 466.892 397.227 475.524C392.513 483.761 385.632 489.739 377.878 491.802C373.79 492.885 369.736 492.648 366.468 490.824C365.872 490.491 365.448 490.149 364.675 489.424L364.418 489.181C363.397 488.211 362.947 487.873 362.403 487.731C362.336 487.713 362.271 487.7 362.208 487.69L362.115 487.679L360.96 487.58L360.939 486.28C360.896 483.51 359.718 482.426 359.828 486.749C359.828 486.749 360.041 492.979 360.099 493.765L360.139 494.281L360.155 494.463L359.473 497.136C329.691 509.901 157.044 510.123 130.407 497.636L129.645 497.254L124.934 494.717C124.934 494.717 134.373 492.249 127.919 493.164C120.996 494.146 112.936 489.385 108.568 481.368L106.975 478.419L106.488 477.502L106.218 476.987C105.569 475.741 105.106 474.787 104.616 473.69C102.641 469.262 101.001 464.498 99.6521 459.373C97.1424 449.837 95.8277 439.506 95.4352 427.821C94.7248 406.686 96.6681 384.379 100.959 361.138C105.121 338.595 111.429 316.683 119.751 295.962C123.911 285.604 128.496 275.698 133.523 266.255L134.064 265.245L134.652 264.154L135.256 263.042L135.863 261.933L136.416 260.932L136.974 259.933L137.537 258.935C142.672 249.877 147.238 243.193 152.516 237.426C157.206 232.302 162.147 227.103 167.339 221.829L167.227 219.621L167.223 219.581C167.113 218.854 165.158 212.647 167.133 207.811L167.358 207.267C169.145 203.022 169.405 204.113 171.115 202.774L171.185 202.719C174.935 199.704 179.713 197.638 185.379 196.259C186.832 195.905 188.2 195.747 190.127 195.661L190.393 195.65L190.742 195.637L192.241 195.586C195.064 195.484 197.18 194.367 198.812 192.054L198.933 191.88L199.056 191.699L199.17 191.522C199.569 190.897 199.95 190.183 200.564 188.958L200.985 188.119L201.188 187.723L201.395 187.325C202.099 185.983 202.6 185.194 203.307 184.331C205.443 181.724 208.756 180.194 212.25 179.939C218.446 179.485 224.545 181.349 233.52 185.633ZM314.828 319.741L314.323 322.528C314.275 322.791 314.249 323.05 314.245 323.301L314.246 323.489L314.282 324.76L313.161 324.947C312.254 325.098 311.355 325.255 310.464 325.419L309.577 325.586L301.208 327.179L308.859 322.864L309.015 322.779L309.057 322.755L309.351 322.597L310.271 322.117L312.534 320.951L314.828 319.741Z" fill="#78E185"/>
<path fill-rule="evenodd" clip-rule="evenodd" d="M308.248 175.975C308.722 178.254 308.289 180.824 308.368 183.163C308.444 185.398 308.679 187.621 309.025 189.824C312.665 187.674 316.968 187.398 321.116 188.09C326.483 188.985 332.693 190.966 336.899 194.99C337.938 195.984 338.798 197.161 339.518 198.459C340.383 200.016 340.935 201.774 342.305 202.89C344.425 204.616 347.054 205.284 349.092 207.196C351.17 209.146 352.46 212.061 352.733 215.069C352.878 216.67 352.643 218.167 352.372 219.729C352.13 221.134 352.249 221.711 352.579 223.063C352.837 224.125 352.344 225.33 351.538 225.916C353.264 227.246 354.967 228.616 356.64 230.043C366.388 238.347 374.631 248.697 380.345 260.877L380.483 261.179L380.643 261.543C382.035 264.754 385.679 274.141 386.131 276.252C386.455 277.354 386.769 278.461 387.06 279.574C387.83 282.524 388.482 285.511 389.023 288.522L389.168 289.344C389.607 291.873 390.363 294.869 390.241 297.565C391.506 304.925 392.627 312.316 393.584 319.738C393.709 320.71 393.365 321.5 392.829 322.024C394.109 322.255 395.381 322.539 396.639 322.825L397.369 322.997L397.735 323.088C400.355 323.751 402.94 324.717 404.656 327.186C406.506 329.858 406.543 333.291 404.685 335.981C403.108 338.266 400.804 339.352 398.399 340.037C397.924 340.171 397.444 340.295 396.965 340.404C396.643 340.48 396.431 339.985 396.736 339.795L397.246 339.478L397.943 339.05C399.756 337.928 401.637 336.662 402.641 334.638C404.003 331.891 402.925 329.348 400.588 327.953C398.631 326.784 396.21 326.485 394.038 326.085L393.14 325.919C390.869 325.512 388.551 325.248 386.258 325.539C384.252 325.796 382.22 326.563 380.599 327.939L380.449 328.071L380.294 328.217C378.872 329.6 376.829 332.705 379.509 333.6C381.558 334.28 384.055 334.111 386.208 334.243L386.487 334.262C388.29 334.4 390.174 334.4 391.997 334.643C392.651 334.728 393.296 334.847 393.928 335.014C395.739 335.495 395.116 338.2 393.52 338.39C393.13 338.438 392.732 338.461 392.333 338.471C391.289 339.352 389.847 339.752 388.613 340.299C387.433 340.823 386.25 341.342 385.058 341.851C386.084 341.904 387.111 341.999 388.133 342.142C388.464 342.184 388.468 342.685 388.133 342.723C385.672 343.004 383.212 343.308 380.76 343.694C376.964 344.284 373.192 345.075 369.506 346.279C366.812 347.163 364.151 348.216 361.569 349.444L360.789 349.821L360.466 349.979C358.124 351.119 355.093 352.453 353.747 354.963C353.043 356.273 352.733 358.296 353.726 359.549C354.788 360.898 357.011 360.744 358.498 360.81L358.617 360.816C361.765 360.987 364.916 361.01 368.068 360.887C374.673 360.625 381.282 359.816 387.768 358.392C388.965 358.13 389.482 360.144 388.278 360.458C380.627 362.454 372.892 363.548 365.042 363.599L364.182 363.601C361.124 364.257 358.125 365.235 355.152 366.34L354.557 366.562C352.801 367.228 349.802 367.891 348.767 369.847C348.08 371.147 348.321 372.038 349 372.642C350.196 373.704 352.741 373.904 353.98 373.957C358.943 374.166 363.911 374.204 368.878 374.085C371.36 374.023 373.842 373.923 376.323 373.78C378.75 373.638 381.341 373.233 383.759 373.494C384.799 373.609 385.147 375.323 384.019 375.642C381.037 376.49 377.692 376.416 374.611 376.524L374.257 376.537C370.948 376.67 367.636 376.728 364.327 376.718C361.487 376.705 358.647 376.641 355.81 376.524L353.302 376.412L352.858 376.388C351.521 376.308 350.156 376.135 348.971 375.518C347.876 377.575 348.695 380.331 350.107 381.96C351.452 383.512 353.391 384.274 355.248 384.75C355.423 384.793 355.597 384.836 355.771 384.874C359.852 385.807 364.009 385.726 367.827 387.83C371.037 389.602 373.978 392.554 377.574 393.253C380.79 393.882 383.127 392.292 384.841 389.35C384.935 389.188 385.028 389.026 385.117 388.864C386.466 386.426 387.437 383.741 388.859 381.35C389.584 380.132 390.403 378.961 391.404 378.008C391.853 377.575 395.001 375.699 395.493 375.137C397.61 372.699 395.735 367.572 396.287 364.515C396.931 360.958 399.718 359.706 401.39 356.949C404.567 351.702 395.853 346.788 398.458 341.051C398.492 340.98 398.534 340.928 398.59 340.894C398.819 340.756 399.184 340.928 399.163 341.266C398.874 345.541 402.505 348.484 403.816 352.188C405.309 356.402 402.925 358.954 400.49 361.768C397.368 365.382 399.565 369.429 398.87 373.78C398.779 374.351 398.633 374.854 398.444 375.304C398.977 375.675 399.389 376.29 399.479 377.149C400.55 387.338 401.701 397.496 403.58 407.544L403.982 409.679L404.52 412.527C405.86 419.65 407.11 426.802 407.348 434.084C408.094 440.229 408.39 446.426 407.948 452.612C406.607 471.443 397.228 491.145 380.188 496.925C376.243 498.263 372.06 498.611 368.013 497.673C366.626 497.354 364.683 496.649 362.939 495.582C363.043 496.837 363.126 498.092 363.16 499.345C363.735 500.063 363.994 501.148 363.667 502.075C362.278 501.562 361.014 500.75 359.877 499.638L359.689 499.45C359.014 496.638 358.817 493.561 358.719 490.598L358.693 489.755C358.668 488.936 358.651 488.131 358.625 487.346C358.481 482.456 358.583 477.557 358.808 472.672L358.973 469.076C359.352 460.688 359.66 452.32 359.453 443.909C359.215 434.229 358.477 424.592 357.552 414.965C357.073 409.999 356.53 405.043 355.974 400.086C355.529 396.096 354.782 391.802 354.77 387.688C351.914 387.002 349.111 385.688 347.354 382.998C345.492 380.146 345.216 376.499 346.87 373.575C345.272 371.119 346.582 368.805 348.559 367.243C345.522 365.333 343.829 360.125 343.38 356.502C343.074 354.016 342.977 350.297 343.922 347.503C342.565 347.555 341.208 347.713 339.85 347.974C338.28 348.284 336.741 348.736 335.222 349.298L334.453 349.584C334.065 349.729 333.628 349.901 333.194 350.103C335.939 355.197 332.414 359.816 327.891 361.135C327.031 361.386 326.153 361.563 325.266 361.705C323.268 362.015 321.227 362.11 319.246 362.315C315.454 362.705 311.641 363.263 307.835 363.444C306.999 363.487 306.461 363.049 306.206 362.439C306.198 362.43 306.194 362.424 306.194 362.415C306.105 362.253 306.045 362.082 306.024 361.901C306.037 361.915 306.054 361.925 306.066 361.934C305.884 360.791 306.495 359.401 307.835 359.235C313.329 358.539 318.898 358.506 324.409 357.997L324.762 357.964C326.492 357.796 328.529 357.488 329.898 356.259C331.171 355.116 331.285 353.63 330.776 352.288C330.768 352.321 330.76 352.359 330.755 352.393C330.717 352.659 330.39 352.65 330.284 352.464C329.966 351.921 329.885 351.388 329.966 350.874C329.584 350.379 329.122 349.94 328.622 349.602C326.403 348.089 323.484 347.674 320.96 347.226C318.199 346.736 315.416 346.512 312.629 346.365C307.144 346.074 301.642 346.575 296.246 347.679C296.021 347.722 295.928 347.37 296.149 347.289C298.252 346.507 300.403 345.851 302.579 345.332C302.528 345.322 302.478 345.313 302.427 345.298C302.236 345.246 302.1 344.984 302.164 344.775C302.172 344.741 302.185 344.708 302.198 344.68C301.273 344.203 300.887 342.604 302.007 341.956C305.498 339.933 309.595 339.018 313.426 338.185C317.104 337.39 320.82 336.833 324.541 336.338C330.832 335.509 337.691 335.528 343.744 333.3L343.993 333.206C346.458 332.252 349.401 330.319 349.573 327.053C349.827 322.116 343.29 323.402 340.567 323.521C333.114 323.84 325.669 324.42 318.25 325.316C316.735 325.497 315.22 325.682 313.706 325.873C311.386 326.163 309.061 326.468 306.745 326.791C305.451 326.973 304.128 327.211 302.796 327.439C302.38 327.553 301.973 327.634 301.566 327.677C301.536 327.681 301.511 327.672 301.489 327.658C299.551 327.963 297.604 328.196 295.712 328.129C295.495 328.125 295.36 327.743 295.589 327.629C298.032 326.468 300.751 325.782 303.478 325.244C305.167 323.83 307.207 322.697 308.883 321.602C311.182 320.097 313.817 317.883 316.426 316.983C317.6 315.945 318.932 315.112 320.159 314.546C319.807 313.931 319.679 313.079 319.742 312.36C319.976 309.784 321.813 308.346 323.934 307.841C324.592 307.689 325.351 307.575 326.161 307.532C326.178 307.051 326.369 306.58 326.793 306.228L326.918 306.121L327.007 306.042C328.431 304.744 331.257 301.09 327.853 300.824C326.047 300.68 324.519 302.166 323.081 303.171C320.095 305.261 317.206 305.365 313.796 304.846L312.262 304.6L312.007 304.561C309.542 304.198 307.04 304.148 305.664 306.97C304.187 309.989 303.67 312.741 300.691 314.403C297.845 315.988 294.685 316.303 292.072 318.483C289.272 320.816 287.168 324.091 284.877 326.996C279.825 333.395 274.043 339.047 268.087 344.361L267.028 345.303C261.543 350.168 255.881 354.958 249.741 358.706C249.698 358.73 249.655 358.74 249.618 358.74C249.452 358.721 249.329 358.482 249.478 358.321C256.651 350.498 265.042 344.156 272.41 336.543C275.676 333.167 278.785 329.615 281.776 325.93C284.389 322.697 286.705 319.064 289.752 316.312C291.232 314.974 292.831 313.95 294.621 313.236C296.293 312.564 298.168 312.231 299.708 311.203C302.724 309.194 302.431 304.433 305.447 302.271C308.033 300.416 311.184 301.094 314.051 301.534L314.394 301.585C316.252 301.862 318.173 302.095 319.947 301.271C321.702 300.457 323.115 298.933 324.884 298.124C327.349 296.986 330.844 297.258 332.108 300.3C333.317 303.204 331.667 305.833 329.741 307.761C332.367 308.294 334.671 309.718 334.866 312.622C336.792 312.55 338.713 312.474 340.639 312.398C347.346 312.136 354.086 311.631 360.798 311.765C360.644 310.998 360.576 310.208 360.568 309.403C360.564 308.956 360.581 308.508 360.61 308.051C360.661 307.27 361.119 306.799 361.799 306.718L363.314 306.536L363.822 306.48C366.661 306.178 369.837 306.115 372.001 308.222C373.163 309.361 374.101 311.979 373.532 313.727C374.855 314.236 376.116 314.888 377.265 315.712C379.543 314.855 381.936 314.95 384.226 315.845L384.498 315.954C386.126 316.625 388.434 317.896 389.319 319.709C387.171 303.369 384.277 287.169 380.638 271.164C378.316 264.773 375.381 258.664 371.823 253.025C362.859 238.818 349.946 229.048 338.349 217.816C337.325 219.08 336.223 220.283 335.192 221.44L334.755 221.934C332.655 224.32 330.465 226.604 328.227 228.825C323.548 233.468 318.623 237.752 313.734 242.106C303.878 250.882 294.966 260.201 287.552 271.659C287.419 271.866 287.049 271.745 287.152 271.471C292.238 257.902 302.78 247.587 312.357 238.016C317.393 232.982 322.547 228.071 327.39 222.8C329.647 220.343 331.834 217.801 333.897 215.136L334.41 214.467C335.759 212.695 338.918 207.285 341.005 211.188C341.443 212.005 341.424 213.049 341.005 213.867C340.412 215.029 339.659 216.137 338.836 217.201C341.763 218.988 344.63 220.875 347.434 222.872C347.273 221.91 347.313 220.846 347.463 219.782L347.512 219.444L347.716 218.124C348.009 216.179 348.159 214.37 347.06 212.472C345.684 210.098 343.091 209.358 341.025 207.986C338.646 206.405 337.403 204.29 336.128 201.606C333.688 196.467 328.175 194.406 323.436 192.753L322.84 192.546C318.461 191.022 313.724 190.207 309.346 191.671C309.757 193.816 310.295 195.931 310.966 197.992C311.681 200.185 313.314 202.623 313.147 204.992C313.031 206.631 311.279 208.383 309.825 207.13C307.766 205.357 307.355 202.469 306.803 199.718C306.269 197.058 305.929 194.333 305.784 191.611C305.644 188.987 305.753 186.366 306.041 183.76L306.262 181.847L306.316 181.402C306.557 179.468 306.914 177.438 307.884 175.922C307.977 175.776 308.205 175.773 308.248 175.975ZM248.507 165.099C248.538 165.254 248.56 165.406 248.58 165.559C248.721 166.212 248.774 166.839 248.757 167.469C248.765 167.696 248.75 167.923 248.713 168.148C248.637 168.89 248.478 169.651 248.263 170.482C247.805 172.252 247.281 174.001 246.695 175.723C245.537 179.128 244.169 182.378 242.479 185.493C239.426 191.119 235.545 195.789 230.97 199.827C231.838 200.631 232.687 201.467 233.538 202.289C237.649 206.259 241.648 210.41 245.523 214.671C252.403 222.238 259.145 229.945 265.728 237.838C268.976 241.73 272.163 245.673 275.332 249.643L275.436 249.777L275.549 249.927C276.674 251.455 278.924 255.098 280.603 254.513C281.45 254.217 282.343 252.797 282.921 252.12L283.985 250.875C284.339 250.458 284.69 250.04 285.036 249.615C291.227 242.001 297.086 234.094 302.587 225.83C305.272 221.798 307.866 217.69 310.367 213.51C311.652 211.362 312.914 209.194 314.15 207.008C315.346 204.894 316.312 202.622 318.074 201.044C319.367 199.886 321.158 200.948 320.833 202.846C320.319 205.836 318.476 208.364 317.024 210.891C315.566 213.43 314.074 215.944 312.548 218.432C309.611 223.222 306.547 227.911 303.374 232.505C300.641 236.462 297.79 240.317 294.861 244.095L294.061 245.123C290.911 249.153 287.819 253.432 284.339 257.11C281.222 260.404 277.818 259.445 274.979 256.243C271.388 252.196 268.054 247.818 264.599 243.623C257.695 235.239 250.718 226.919 243.67 218.688L241.353 215.979C238.651 212.814 235.96 209.629 233.34 206.386L233.002 205.963C230.013 202.19 226.975 197.463 222.726 195.545C222.419 195.406 222.532 194.917 222.864 194.985C225.583 195.549 227.854 197.087 229.966 198.925C231.865 195.398 233.559 191.68 235.036 187.878L234.089 187.416C227.308 184.128 219.666 180.812 212.386 181.345C209.452 181.559 206.322 182.807 204.297 185.279C202.462 187.518 201.547 190.538 199.863 192.923C197.935 195.654 195.421 196.884 192.335 196.995L190.834 197.046C189.108 197.108 187.453 197.21 185.702 197.636C180.959 198.79 175.958 200.663 171.979 203.861C170.536 205.021 169.047 206.616 168.349 208.373C167.657 210.115 167.458 212.152 167.39 214.031C167.358 214.947 167.603 216.157 167.398 217.034C167.421 216.933 167.432 216.987 167.435 217.091C168.071 217.654 168.504 218.59 168.551 219.522C172.516 217.202 176.622 215.169 180.806 213.337C185.466 211.296 190.27 209.661 195.075 208.113C199.778 206.598 204.7 205.972 209.494 204.892C210.104 204.754 210.317 205.68 209.748 205.925C204.709 208.097 199.834 210.672 194.753 212.716C189.675 214.759 184.634 216.97 179.703 219.428C170.172 224.18 160.966 230.227 153.457 238.431C146.123 246.444 140.467 256.178 135.206 265.966C129.907 275.822 125.179 286.037 120.964 296.53C112.627 317.289 106.375 339.115 102.259 361.409C98.253 383.104 96.0149 405.574 96.7602 427.749C97.114 438.281 98.2602 448.821 100.926 458.95C102.199 463.789 103.794 468.517 105.808 473.032C107.932 477.791 110.793 482.03 112.733 486.871C112.892 487.269 112.953 487.651 112.944 488.006C121.216 496.05 134.164 490.63 143.117 485.827C163.716 474.771 183.934 462.673 203.15 448.789C222.116 435.086 240.09 419.793 257.639 403.919C256.282 402.348 255.085 400.586 254.034 398.991C251.862 395.696 250.228 391.964 249.104 388.068C247.789 383.507 247.382 378.627 247.755 373.861L247.861 372.513C248.219 368.013 248.632 363.446 249.511 359.049C249.52 358.992 249.558 358.968 249.601 358.968C249.643 358.968 249.685 358.997 249.702 359.049C252.074 367.567 252.265 376.722 254.928 385.131C256.001 388.512 257.664 391.778 259.658 394.582C260.52 395.796 261.529 396.849 262.56 397.877C262.628 397.353 262.721 396.834 262.861 396.325L262.972 395.922C263.11 395.432 263.281 394.887 263.518 394.406C263.183 394.297 262.857 394.178 262.535 394.044C262.28 393.94 262.224 393.478 262.535 393.402C263.379 393.183 264.248 393.073 265.135 393.025C265.275 393.002 265.41 392.997 265.546 393.006C267.205 392.949 268.893 393.083 270.493 393.111C273.263 393.159 276.024 393.215 278.79 393.354C284.084 393.611 290.061 394.749 295.271 393.368C300.005 392.111 304.671 388.568 308.467 385.236C311.784 382.322 314.343 378.861 317.095 375.409C316.898 375.444 316.702 375.476 316.506 375.507L314.731 375.78C312.49 376.116 309.83 376.379 308.052 375.171C307.373 374.709 307.568 373.661 308.26 373.375C310.075 372.628 312.328 373.247 314.262 373.142C315.78 373.061 317.316 372.881 318.814 372.528C319.306 372.414 319.793 372.281 320.277 372.123C323.823 370.976 327.989 366.938 325.173 362.53C325.067 362.363 325.185 362.211 325.329 362.182C325.393 362.168 325.461 362.182 325.516 362.234C328.723 365.214 327.056 370.557 324.023 372.847C322.98 373.638 321.8 374.19 320.579 374.595C320.812 375.075 320.854 375.666 320.574 376.227C318.199 380.979 314.177 385.155 310.41 388.512C306.542 391.958 302.079 395.21 297.281 396.734C291.741 398.486 285.654 397.168 280.033 396.611C276.987 396.31 273.95 395.953 270.908 395.558C270.093 395.454 269.25 395.373 268.392 395.282C269.199 396.473 269.839 397.844 270.259 398.667C271.625 401.343 270.365 404.867 267.718 405.685C267.442 405.771 267.158 405.819 266.878 405.828C266.165 407.432 264.469 408.614 262.899 408.009C262.216 407.747 261.558 407.39 260.927 406.962C251.055 416.694 240.662 425.825 229.973 434.386C210.149 450.26 189.371 464.758 167.826 477.504C162.974 480.375 158.084 483.169 153.152 485.854L148.908 488.151C144.21 490.689 139.401 493.212 134.412 494.787C133.439 495.094 132.421 495.342 131.377 495.532C131.364 495.637 131.36 495.738 131.366 495.834C130.428 495.974 129.609 495.995 128.91 495.898L128.751 495.873C122.635 496.353 116.094 494.677 112.159 489.664C111.503 490.18 110.547 490.237 109.704 489.494C105.46 485.757 102.931 480.067 100.711 474.635C98.46 469.125 96.6957 463.382 95.3994 457.499C92.81 445.75 91.783 433.629 91.7289 421.543C91.5331 374.969 101.925 327.986 119.976 286.173C124.554 275.568 129.6 265.161 135.203 255.193C140.789 245.251 147.277 236.012 155.585 228.762C157.974 226.677 160.459 224.771 163.023 223.015C161.302 222.058 160.619 219.624 160.498 217.461C160.231 212.659 160.741 207.126 163.246 203.073C166.761 197.388 173.052 193.883 178.886 192.179C181.931 191.289 185.081 190.771 188.223 190.595C189.842 190.504 191.525 190.803 193.125 190.607C194.537 190.435 195.41 189.489 196.222 188.246C198.302 185.059 199.656 181.717 202.639 179.381C205.7 176.985 209.667 176.068 213.355 176.316C217.651 176.606 221.57 178.506 225.353 180.689C228.768 182.659 232.083 184.842 235.313 187.17C235.906 185.613 236.463 184.043 236.982 182.469C237.988 179.416 238.863 176.266 239.574 173.11C240.293 169.91 240.188 165.684 242.363 163.278C244.253 161.186 247.894 162.007 248.507 165.099ZM395.062 378.624L395.046 378.628C390.648 381.553 388.545 388.864 386.475 392.058C386.644 393.13 386.763 394.22 386.996 395.234C387.531 397.563 388.23 399.872 389.041 402.091C390.466 406.009 392.252 409.742 393.902 413.541C395.23 416.596 396.531 419.708 397.543 422.924C397.434 423.047 397.332 423.194 397.246 423.375C396.148 425.683 395.289 425.229 393.263 424.725L393.262 424.721C392.103 420.741 390.432 417.003 388.931 413.184L388.566 412.252L388.204 411.319C386.95 408.05 385.805 404.752 385.138 401.248C384.714 399.015 384.54 396.72 384.515 394.439C383.416 395.454 382.096 396.182 380.434 396.463C376.876 397.066 373.653 394.565 370.754 392.558L370.101 392.109C368.286 390.87 366.487 389.725 364.394 389.14C362.019 388.474 359.563 388.474 357.149 388.135C356.86 388.092 356.568 388.049 356.275 387.998C357.217 391.497 357.654 395.297 358.214 398.801C358.995 403.714 359.631 408.671 360.242 413.613C361.43 423.193 362.257 432.848 362.676 442.509C363.083 451.863 362.878 461.182 362.577 470.533L362.426 475.093C362.306 478.806 362.206 482.523 362.265 486.236C362.426 486.25 362.587 486.279 362.749 486.322C364.42 486.76 365.561 488.674 367.088 489.527C370.312 491.326 374.207 491.302 377.638 490.393C385.444 488.317 391.934 482.203 396.21 474.733C401.343 465.773 403.227 455.226 403.167 444.675C403.096 432.801 401.383 421.447 398.998 409.984L398.844 409.252C396.837 399.701 395.58 378.715 395.062 378.624ZM176.494 354.665C176.538 357.859 175.381 361.275 174.745 364.379C174.06 367.722 173.377 371.066 172.685 374.409L172.062 377.403C171.544 379.899 171.033 382.396 170.575 384.907C170.198 386.971 170.04 389.691 169.423 391.966C176.765 388.633 184.118 385.334 191.459 382.012C200.503 377.918 209.589 373.937 218.655 369.909C227.686 365.9 236.666 361.339 245.88 357.911C248.074 357.092 249.558 361.02 247.458 362.11C238.1 366.981 228.199 370.795 218.612 375.061L204.744 381.241C192.031 386.902 179.309 392.537 166.524 397.977C157.815 401.682 149.14 405.495 140.376 409.014C136.197 410.69 131.981 412.275 127.824 414.013C124.341 415.47 120.574 417.632 119.284 421.831C119.217 422.05 118.949 421.96 118.979 421.736C119.501 417.669 122.191 415.127 125.223 413.203C129.248 410.644 133.669 408.781 137.918 406.729L138.497 406.448C147.173 402.201 155.919 398.125 164.691 394.118C164.604 393.88 164.553 393.625 164.549 393.358L164.524 393.366C164.365 391.546 165.108 389.923 165.643 388.23L167.178 383.371C168.2 380.136 169.117 376.861 170.062 373.596C171.05 370.185 172.047 366.776 173.043 363.367C173.886 360.479 174.453 357.037 175.895 354.456C176.069 354.145 176.549 354.32 176.494 354.665ZM345.45 347.484L345.34 348.104C345.213 348.829 345.093 349.56 345.064 350.293C344.978 352.212 345.174 354.13 345.628 355.983C346.073 357.815 346.697 359.587 347.584 361.211C348.423 362.739 349.641 363.939 350.417 365.505C350.497 365.672 350.548 365.838 350.569 366.001C350.866 365.862 351.16 365.739 351.444 365.638C353.811 364.796 356.228 364.091 358.68 363.563L358.291 363.533L358.04 363.511C353.944 363.122 350.078 361.617 350.914 356.249C351.386 353.214 353.508 351.179 355.783 349.737L356.068 349.56C356.19 349.483 356.318 349.407 356.44 349.341C354.383 348.95 352.89 348.47 350.366 347.993C348.728 347.684 347.087 347.513 345.45 347.484ZM158.294 281.358C162.323 290.493 165.353 300.206 167.64 310.061C168.743 314.82 169.68 319.625 170.433 324.47L170.681 326.087L170.821 326.965C171.525 331.283 172.419 335.96 171.385 340.173C171.048 341.55 169.012 342.094 168.442 340.606C166.722 336.111 166.964 330.945 166.465 326.135C165.941 321.088 165.227 316.065 164.336 311.083C162.625 301.511 160.223 292.163 157.546 282.885L157.247 281.854C157.02 281.167 158.01 280.714 158.294 281.358ZM313.129 322.225C311.929 322.859 310.728 323.44 309.668 324.02C309.587 324.068 309.503 324.111 309.417 324.159C310.618 323.93 311.823 323.716 313.027 323.515C313.015 323.077 313.053 322.645 313.129 322.225ZM360.103 317.65C359.923 317.716 359.763 317.822 359.625 317.968L359.557 318.044C359.392 318.217 359.275 318.421 359.206 318.657C359.1 318.884 359.051 319.129 359.06 319.391L359.121 319.897C359.201 320.22 359.347 320.499 359.557 320.737L359.9 321.035C360.132 321.186 360.379 321.271 360.643 321.291L360.757 321.295L361.1 321.295C361.297 321.288 361.481 321.233 361.655 321.131C361.835 321.065 361.995 320.959 362.133 320.813L362.201 320.737C362.367 320.564 362.483 320.36 362.552 320.124C362.643 319.93 362.691 319.722 362.698 319.502L362.698 319.391L362.637 318.884C362.567 318.602 362.447 318.352 362.277 318.135L362.201 318.044L361.858 317.746C361.626 317.595 361.378 317.51 361.115 317.491L361.001 317.486H360.757C360.523 317.476 360.305 317.531 360.103 317.65ZM349.066 317.006C348.164 317.191 347.653 318.418 347.881 319.348C348.133 320.378 349.005 320.835 349.88 320.695L349.968 320.679C350.994 320.467 351.999 320.549 352.976 320.953C353.835 321.309 354.835 320.554 355.063 319.623C355.323 318.559 354.741 317.637 353.877 317.28C352.329 316.638 350.668 316.674 349.066 317.006ZM170.343 249.37C172.396 252.746 173.677 257.234 174.942 261.092L175.068 261.476C176.412 265.531 177.708 269.617 178.917 273.726C181.331 281.927 184.476 290.509 185.057 299.173C185.164 300.771 182.984 301.412 182.352 299.995C180.536 295.921 179.56 291.674 178.485 287.306C177.46 283.14 176.392 278.989 175.324 274.837C174.257 270.688 173.224 266.526 172.172 262.371C171.149 258.33 169.725 253.835 169.491 249.629C169.46 249.082 170.107 248.981 170.343 249.37ZM216.67 222.19C219.41 224.325 221.654 227.447 223.973 230.117C226.325 232.826 228.646 235.56 230.945 238.326C234.787 242.95 238.56 247.649 242.456 252.216C250.221 261.317 259.005 269.692 269.721 273.969C272.314 275.004 271.178 279.675 268.579 278.618C257.618 274.158 248.538 265.911 240.529 256.581C236.38 251.749 232.574 246.586 228.863 241.331C227.126 238.872 225.402 236.405 223.703 233.915L222.686 232.417C220.549 229.253 217.935 226.099 216.371 222.526C216.284 222.325 216.476 222.039 216.67 222.19Z" fill="black"/>
<path fill-rule="evenodd" clip-rule="evenodd" d="M342.483 72.9723C338.574 58.8062 323.632 52.6248 310.175 51.6439C273.739 47.8416 236.653 68.2317 220.5 101.295C207.57 126.401 207.165 152.774 234.959 167.109C236.477 167.949 238.062 168.847 239.681 169.662C241.087 170.975 242.536 172.236 244.116 173.295C259.251 183.286 277.827 187.607 295.829 186.67C322.408 186.132 331.897 168.027 337.703 144.808C343.827 121.692 347.252 96.6096 342.483 72.9723V72.9723Z" fill="#FBE48A"/>
<path fill-rule="evenodd" clip-rule="evenodd" d="M359.93 206.499C358.689 202.731 357.133 199.078 355.68 195.386C355.372 193.546 355.168 191.691 355.115 189.821C354.913 183.139 356.158 176.4 357.554 169.893C360.393 156.67 363.402 143.584 364.913 130.118C367.611 106.03 366.005 80.9824 355.092 58.9938C345.635 39.9462 329.61 24.3691 308.909 18.5329C302.79 16.8068 296.491 15.8548 290.15 15.4746C289.365 15.3493 288.581 15.2266 287.8 15.1085C278.98 13.7736 270.051 13.1085 261.135 13.6841C246.351 14.6392 231.704 18.9043 219.391 27.3401C206.994 35.8342 198.185 47.7443 194.086 62.2712C189.823 77.3836 190.184 93.7504 182.821 107.919C180.646 112.105 178.107 116.084 175.686 120.13C169.261 127.326 162.285 135.327 160.756 145.222C158.87 157.451 165.879 167.786 172.513 177.329C178.508 185.946 186.645 197.847 180.474 208.457C177.564 213.462 172.9 217.207 169.397 221.771C165.766 226.51 162.931 231.95 161.466 237.763C158.715 248.681 161.246 260.061 168.604 268.594C172.437 273.036 177.359 275.973 182.687 278.262C188.14 280.601 193.468 282.822 197.976 286.803C200.036 288.621 201.922 290.613 203.706 292.701C205.368 295.31 207.303 297.748 209.485 299.981C211.887 302.438 216.593 299.074 214.388 296.182C214.225 295.969 214.066 295.76 213.903 295.546C212.29 293.436 210.669 291.325 208.973 289.283C203.915 281.237 201.968 271.386 204.484 261.988C205.137 259.546 206.055 257.23 207.198 255.043C207.44 255.68 207.706 256.308 207.986 256.929C209.079 259.337 210.613 262.19 212.563 264.628C212.639 266.3 212.89 267.958 213.375 269.581C216.381 279.641 226.429 284.605 235.491 288.468C236.379 288.849 237.256 289.215 238.117 289.577C240.485 290.571 242.99 287.184 241.513 285.142C241.126 284.605 240.751 284.057 240.394 283.501C236.144 276.895 234.121 268.994 235.267 261.123C236.474 252.8 241.362 245.912 246.215 239.302C250.981 232.803 256.101 226.171 258.233 218.243C260.594 209.485 258.446 200.754 254.803 192.693C251.467 185.317 247.024 178.518 243.298 171.344C244.574 172.622 245.89 173.857 247.246 175.049C248.771 176.389 250.338 177.923 252.146 178.867C253.482 179.566 254.821 177.894 253.763 176.764C252.371 175.279 250.591 174.131 249.046 172.806C247.563 171.534 246.123 170.211 244.719 168.852C242.99 167.179 241.345 165.428 239.758 163.623C238.489 160.377 237.443 157.044 236.592 153.661C235.434 149.081 234.364 144.209 234.448 139.462C234.531 134.594 237.051 131.184 240.405 127.916C241.826 126.532 243.261 125.164 244.692 123.794C247.742 121.547 250.618 119.036 253.412 116.533C258.391 112.071 263.207 107.355 267.806 102.502C269.039 101.2 270.263 99.883 271.471 98.5512C275.693 94.2022 279.719 89.6613 283.514 84.9634C287.286 83.5843 290.91 81.7596 294.31 79.611C292.83 81.1157 291.335 82.6015 289.848 84.0986C286.535 87.4357 283.093 90.7881 279.253 93.5077C278.858 93.79 279.097 94.3881 279.583 94.2929C284.467 93.3138 289.036 91.6834 293.301 89.0853C297.638 86.4415 301.46 82.8491 305.027 79.2453C307.046 78.331 308.993 77.1538 310.772 75.9957C310.867 75.9348 310.962 75.87 311.057 75.8087C309.304 81.3862 306.731 87.7024 301.247 89.691C301.069 89.7557 301.08 90.0529 301.293 90.0415C305.913 89.7695 309.625 87.683 312.557 84.6418C314.914 82.939 317.163 81.1344 319.31 79.1698C321.39 77.2666 323.36 75.2255 325.23 73.1119C322.616 78.3116 319.687 83.3957 316.798 88.4224C316.647 88.6891 316.965 89.051 317.239 88.8643C323.337 84.7196 327.963 79.371 331.746 73.0468C332.305 72.1157 332.838 71.1695 333.358 70.2159C332.965 71.7081 332.537 73.1908 332.078 74.6658C331.247 77.3359 330.43 80.0121 329.597 82.6807C329.149 84.1196 328.602 85.5257 328.002 86.9077C327.573 87.8967 327.01 88.8837 326.923 89.9683C326.917 90.0403 326.995 90.0876 327.058 90.0719C329.49 89.4616 331.754 86.6777 333.487 84.9531C334.452 83.9927 335.356 82.9386 336.187 81.827C336.342 88.2296 336.448 94.6331 336.307 101.055C336.046 112.849 335.287 124.64 334.315 136.395C333.458 146.788 332.824 157.695 327.048 166.727C322.578 173.718 315.33 178.555 307.456 180.899C306.761 181.108 306.063 181.295 305.361 181.462C293.961 184.179 282.607 181.101 272.528 175.661C269.5 174.026 266.912 178.46 269.834 180.285C280.771 187.12 294.633 189.447 307.012 186.384C306.621 201.062 313.827 214.986 320.995 227.436C325.007 234.403 329.021 241.325 331.857 248.88C334.262 255.295 335.898 261.95 336.448 268.796C337.101 276.864 336.459 284.979 335.336 292.979C335.275 293.413 335.215 293.851 335.15 294.285C334.9 296.003 336.436 297.443 338.102 296.563C345.468 292.678 348.644 284.395 350.576 276.739C352.382 269.565 353.608 262.251 354.291 254.887C355.293 257.664 356.105 260.51 356.735 263.413C356.822 263.828 356.906 264.243 356.989 264.659C357.467 267.085 361.125 266.914 361.71 264.659C361.816 264.251 361.918 263.843 362.013 263.432C365.03 251.184 365.842 238.411 364.248 225.889C363.41 219.302 362.01 212.803 359.93 206.499" fill="black"/>
<path fill-rule="evenodd" clip-rule="evenodd" d="M304.674 158.21C302.117 157.165 299.836 155.423 298.169 153.197C297.589 152.423 297.439 151.606 297.56 150.858C297.697 150.018 298.194 149.256 298.87 148.745C299.549 148.233 300.399 147.98 301.22 148.109C301.933 148.221 302.644 148.612 303.206 149.424L303.323 149.586C304.315 150.93 305.607 152.032 307.079 152.743C308.497 153.427 310.084 153.747 311.726 153.561C314.854 153.207 317.009 151.513 319.3 149.212C319.584 148.922 319.868 148.622 320.154 148.318C320.334 148.042 320.585 147.864 320.862 147.771C321.171 147.668 321.52 147.674 321.84 147.786C322.148 147.893 322.423 148.098 322.608 148.369C322.784 148.628 322.883 148.947 322.851 149.314C322.641 151.698 321.397 153.826 319.629 155.497C317.666 157.353 315.064 158.637 312.614 159.087C309.915 159.583 307.164 159.228 304.674 158.21V158.21ZM313.887 121.426C316.759 123.174 321.134 127.252 318.045 131.587C314.409 135.409 309.173 131.026 306.593 129.044C304.201 127.508 301.513 131.459 303.733 133.253C322.376 147.079 329.941 121.883 315.34 119.37C313.732 119.093 313.135 120.885 313.887 121.426ZM280.479 105.342C280.796 101.396 286.794 100.5 287.391 104.404C287.925 107.902 287.296 111.114 285.724 114.263C284.221 117.271 280.445 115.867 280.159 113.128C279.777 109.457 280.282 107.796 280.479 105.342ZM326.137 103.595C326.973 102.498 328.181 101.749 329.627 102.172C334.147 103.495 332.815 109.923 331.227 113.052C330.365 114.751 327.577 115.182 326.317 113.686C324.264 111.246 323.28 106.374 325.891 103.971C325.962 103.847 326.04 103.721 326.137 103.595ZM285.66 88.0784L286.374 87.9532C288.583 87.5705 291.329 87.2029 292.891 88.9816C293.72 89.9248 294.005 91.678 292.891 92.5808C290.932 94.1694 288.766 93.5538 286.418 93.6883C284.483 93.7995 282.624 94.1203 280.76 94.654C276.671 95.8247 273.339 97.9618 269.847 100.308C269.389 100.616 268.921 100.029 269.14 99.5999C271.156 95.6445 275.063 92.3953 278.976 90.4147C281.064 89.3576 283.35 88.4807 285.66 88.0784ZM322.017 86.3065L322.563 86.4185C328.51 87.6637 336.236 90.1511 339.052 96.0023C339.159 96.8297 339.046 97.007 338.954 97.1229L338.923 97.1614C338.847 97.2604 338.786 97.3967 338.428 97.5093C338.329 97.4856 338.229 97.4605 338.127 97.4339C336.837 97.095 335.815 96.6282 334.827 96.1438L333.755 95.6147C332.511 95.0038 331.256 94.4152 329.926 93.9806C327.089 93.0534 324.17 92.4002 321.206 92.0514C320.563 91.9759 319.945 91.7587 319.457 91.3864C318.993 91.0331 318.64 90.5439 318.478 89.8936C318.269 89.0521 318.329 88.4149 318.78 87.6557C319.119 87.0856 319.604 86.6904 320.161 86.4635C320.728 86.2321 321.375 86.1776 322.017 86.3065Z" fill="black"/>
<path fill-rule="evenodd" clip-rule="evenodd" d="M346.998 112.011C343.714 134.442 320.794 136.923 316.722 114.654C317.375 114.365 317.845 113.796 317.747 112.691C317.724 107.839 319.216 102.71 323.55 100.011C328.029 97.2261 333.271 96.9499 338.455 97.0202C348.346 96.7823 348.138 105.133 346.998 112.011ZM313.134 102.256C310.029 102.123 306.102 102.234 303.321 104.144C302.556 102.065 300.57 99.8449 298.563 98.6578C306.023 98.8783 313.702 98.1367 321.218 97.5611C319.419 98.7997 317.745 100.661 316.657 102.812C315.648 102.268 314.202 102.319 313.134 102.256ZM299.45 114.389C290.842 144.315 269.356 131.271 267.013 127.436C262.788 121.09 261.993 105.662 265.673 101.537C270.942 97.8073 278.4 98.7673 284.624 98.6758C296.058 98.8317 304.179 102.286 299.45 114.389ZM357.162 100.625C354.823 100.317 352.324 100.254 350.149 101.294C349.48 98.4202 347.378 96.0174 345.005 94.96C344.718 94.5962 344.761 94.4007 343.78 94.4553C337.755 92.6265 331.012 93.5941 325.223 95.4696C316.078 96.2473 306.485 96.8605 297.264 97.9322C288.626 94.0143 262.558 93.44 260.938 103.097C258.9 102.789 255.43 101.169 253.718 103.366C241.158 101.216 228.179 104.205 215.565 105.536C212.389 106.126 210.754 112.491 214.358 112.404C216.385 111.848 214.296 108.441 217.025 108.184C229.196 106.842 241.1 104.937 253.396 104.714C252.968 106.858 261.528 106.998 261.655 105.746C261.673 105.755 261.692 105.761 261.711 105.77C259.596 113.731 261.505 125.19 265.328 130.127C270.684 136.591 284.13 138.446 290.093 134.287C297.784 130.448 305.785 111.177 303.538 104.775C307.616 103.47 311.649 103.862 315.882 104.527C314.913 107.292 313.24 114.098 315.647 114.688C315.205 128.201 327.382 136.633 338.607 131.089C348.322 126.483 351.72 111.903 350.531 103.053C351.74 105.414 361.896 102.844 357.162 100.625Z" fill="black"/>
</g>
<defs>
<clipPath id="clip0_1_18997">
<rect width="500" height="500" fill="white"/>
</clipPath>
</defs>
</svg>
